<?xml version="1.0" encoding="UTF-8" standalone="no"?>
<svg xmlns:rdf="http://www.w3.org/1999/02/22-rdf-syntax-ns#" xmlns="http://www.w3.org/2000/svg" enable-background="new 0 0 512 512" xml:space="preserve" height="100" width="100" version="1.1" y="0px" x="0px" xmlns:cc="http://creativecommons.org/ns#" xmlns:dc="http://purl.org/dc/elements/1.1/" viewBox="0 0 100 99.999611"><path d="m25.783 36.33c1.8303-1.8301 3.8597-3.3391 6.018-4.5289 12.028-6.6306 27.456-3.1039 35.187 8.6209l-9.3561 9.3561c-2.6842-6.1231-9.3447-9.6032-15.974-8.1204-2.4956 0.55826-4.8675 1.8027-6.8056 3.741l-17.936 17.936c-5.4449 5.4449-5.4447 14.305 0.000485 19.75 5.4449 5.4449 14.305 5.4449 19.75 0l5.5292-5.5289c5.0267 1.9944 10.422 2.7932 15.743 2.394l-12.203 12.203c-10.462 10.462-27.425 10.462-37.888 0-10.462-10.462-10.463-27.425-0.0003-37.888l17.936-17.935zm28.483-28.483-12.203 12.203c5.3224-0.39879 10.717 0.4 15.744 2.3944l5.5289-5.5292c5.4452-5.4452 14.305-5.4452 19.75 0 5.4452 5.4452 5.4452 14.305 0 19.75l-17.936 17.936c-5.4614 5.4614-14.335 5.4153-19.75 0-1.2626-1.2624-2.3529-2.8345-3.0301-4.3787l-9.3559 9.3559c0.98277 1.4908 2.0051 2.7799 3.317 4.0918 3.3857 3.3859 7.6937 5.9076 12.65 7.0998 6.4238 1.5461 13.307 0.68908 19.22-2.5709 2.1583-1.19 4.1879-2.6988 6.018-4.5289l17.934-17.935c10.462-10.462 10.462-27.425 0.000243-37.888-10.463-10.462-27.425-10.462-37.888 0z"/></svg>
